<svg id="Group_449" data-name="Group 449" xmlns="http://www.w3.org/2000/svg" width="45.398" height="37.237" viewBox="0 0 45.398 37.237">
  <g id="Group_439" data-name="Group 439" transform="translate(0 0)">
    <path id="Polygon_87" data-name="Polygon 87" d="M7.7,0,10.27,4.493,7.7,8.987H2.568L0,4.493,2.568,0Z" transform="translate(32.01 23.85) rotate(-30)" fill="#fff"/>
    <path id="Polygon_89" data-name="Polygon 89" d="M9.436,0l3.145,5.392L9.436,10.784H3.145L0,5.392,3.145,0Z" transform="translate(24.655 12.223) rotate(-30)" fill="#fff"/>
    <path id="Polygon_88" data-name="Polygon 88" d="M10.014,0l3.338,5.777-3.338,5.777H3.338L0,5.777,3.338,0Z" transform="translate(16.682 27.231) rotate(-30)" fill="#fff"/>
    <path id="Polygon_90" data-name="Polygon 90" d="M16.561,0l5.52,9.5L16.561,19H5.52L0,9.5,5.52,0Z" transform="translate(0 11.041) rotate(-30)" fill="#fff"/>
  </g>
</svg>
