<svg xmlns="http://www.w3.org/2000/svg" width="38" height="38" viewBox="0 0 38 38">
  <g id="Group_451" data-name="Group 451" transform="translate(-15785.837 -596.252)">
    <path id="Union_149" data-name="Union 149" d="M22.849,31.24H18.641L14.8,22.956c-.284-.479-.565-.923-.837-1.319s-.54-.757-.8-1.071a8.94,8.94,0,0,0-.759-.822,4.988,4.988,0,0,0-.721-.573,5.457,5.457,0,0,0-.731-.393,5.635,5.635,0,0,0-.79-.28,6.208,6.208,0,0,0-.849-.168,7.21,7.21,0,0,0-.909-.056H5.29V15.015h5.18a8.752,8.752,0,0,0,1.387-.106,7.038,7.038,0,0,0,1.253-.319,6.2,6.2,0,0,0,1.119-.532,6.127,6.127,0,0,0,.985-.744,5.671,5.671,0,0,0,.8-.921,5.46,5.46,0,0,0,.574-1.062,6.074,6.074,0,0,0,.344-1.2,7.6,7.6,0,0,0,.115-1.343,6.951,6.951,0,0,0-.1-1.229,5.371,5.371,0,0,0-.313-1.087,4.673,4.673,0,0,0-.522-.945,4.753,4.753,0,0,0-.731-.8,4.97,4.97,0,0,0-.931-.641,6.114,6.114,0,0,0-1.121-.458,8.285,8.285,0,0,0-1.312-.275,11.731,11.731,0,0,0-1.5-.092H5.29V0h5.861a14.783,14.783,0,0,1,2.084.141A11.263,11.263,0,0,1,15.1.565a9.178,9.178,0,0,1,1.636.706,8.309,8.309,0,0,1,1.412.988,7.611,7.611,0,0,1,.609.592,7.214,7.214,0,0,1,.528.645,7.109,7.109,0,0,1,.447.7,7.3,7.3,0,0,1,.365.753,7.792,7.792,0,0,1,.284.807,8.6,8.6,0,0,1,.2.861A10.5,10.5,0,0,1,20.742,8.5a10.976,10.976,0,0,1-.111,1.583,8.838,8.838,0,0,1-.332,1.438,7.647,7.647,0,0,1-.553,1.293,7.3,7.3,0,0,1-.774,1.148,7.749,7.749,0,0,1-.995,1,9.06,9.06,0,0,1-1.216.858,11.338,11.338,0,0,1-1.437.713,14.787,14.787,0,0,1-1.658.568v.082a7.172,7.172,0,0,1,1.2.665,5.852,5.852,0,0,1,.972.841,13.861,13.861,0,0,1,1.07,1.382c.426.609.93,1.379,1.5,2.289ZM0,31.188V.015H3.6V31.188H0Z" transform="translate(15800.987 603.012)" fill="#fff"/>
    <path id="Union_150" data-name="Union 150" d="M3.962,1.1v2.2l1.9,1.1,1.9-1.1V1.1L5.865,0ZM0,2.562l.008,1.7,1.471.858,1.463-.845-.008-1.7L1.463,1.718ZM6.361,5.381,6.351,9l3.136,1.8,3.146-1.816.01-3.615-3.136-1.8Zm-4.73.78L1.621,8.215,3.4,9.234,5.2,8.2l.009-2.054L3.423,5.126Z" transform="translate(15798.479 607.047) rotate(180)" fill="#fff"/>
  </g>
</svg>
